<svg width="47" height="50" viewBox="0 0 47 50" fill="none" xmlns="http://www.w3.org/2000/svg">
<g id="Coffee logo">
<g id="Group">
<g id="Group_2">
<path id="Vector" d="M44.9044 41.8505H37.8321C37.4275 41.8505 37.0997 42.1784 37.0997 42.5829C37.0997 42.9874 37.4275 43.3154 37.8321 43.3154H44.172V43.7285L33.5073 45.7538H12.1295L1.46485 43.7285V43.3154H4.37696C4.37813 43.3154 4.37931 43.3156 4.38038 43.3156C4.38126 43.3156 4.38224 43.3154 4.38311 43.3154H7.02199C7.02287 43.3154 7.02365 43.3156 7.02453 43.3156C7.02589 43.3156 7.02736 43.3154 7.02872 43.3154H15.8097C15.8102 43.3154 15.8107 43.3155 15.8113 43.3155C15.8117 43.3155 15.8121 43.3154 15.8126 43.3154H18.4293C18.4301 43.3154 18.4309 43.3156 18.4317 43.3156C18.4325 43.3156 18.4333 43.3154 18.4341 43.3154H27.2027C27.2036 43.3154 27.2043 43.3156 27.2051 43.3156C27.2059 43.3156 27.2067 43.3154 27.2074 43.3154H35.1123C35.5169 43.3154 35.8447 42.9874 35.8447 42.5829C35.8447 42.1784 35.5169 41.8505 35.1123 41.8505H30.388C31.2628 41.2947 32.0791 40.6437 32.813 39.9103C33.8722 38.8505 34.7419 37.6519 35.4065 36.356C36.3327 36.7332 37.3134 36.9247 38.3301 36.9247C42.6196 36.9247 46.1094 33.4345 46.1094 29.1444C46.1094 24.8549 42.6196 21.3651 38.3301 21.3651C37.8652 21.3651 37.4047 21.4072 36.9521 21.4884V21.0693C36.9521 20.1318 36.1894 19.3691 35.252 19.3691H31.788C31.3835 19.3691 31.0556 19.6971 31.0556 20.1016C31.0556 20.5061 31.3835 20.834 31.788 20.834H35.252C35.3817 20.834 35.4873 20.9396 35.4873 21.0693V22.3145H10.1484V21.0693C10.1484 20.9396 10.2539 20.834 10.3837 20.834H29.0673C29.4719 20.834 29.7998 20.5061 29.7998 20.1016C29.7998 19.6971 29.4719 19.3691 29.0673 19.3691H10.3837C9.44621 19.3691 8.68351 20.1318 8.68351 21.0693V29.9151C8.68351 31.0197 8.81271 32.115 9.06447 33.1787C7.87238 32.8233 6.45187 33.1026 5.15577 33.9894C4.82188 34.2178 4.73634 34.6736 4.96476 35.0074C5.19327 35.3412 5.64913 35.4267 5.98292 35.1984C6.83234 34.6172 7.72375 34.3891 8.46086 34.5367L5.79308 38.5281C5.56827 38.8645 5.6587 39.3194 5.99493 39.5441C6.11993 39.6277 6.26144 39.6677 6.40128 39.6677C6.63771 39.6677 6.86974 39.5534 7.01085 39.3422L9.67941 35.3494C9.95617 35.7603 10.1078 36.2979 10.115 36.9244C10.115 36.9247 10.115 36.9249 10.115 36.9252C10.115 36.9266 10.1151 36.9279 10.1151 36.9293C10.1249 37.8969 9.78684 38.9435 9.1633 39.8763C8.80783 40.4082 8.38752 40.8644 7.91154 41.2339C7.58156 41.4923 7.23488 41.699 6.8797 41.8505H4.56593C4.53946 41.8347 4.51309 41.8188 4.48683 41.801C3.26739 40.9865 3.19024 38.8802 4.31114 37.0057C4.51876 36.6585 4.40567 36.2087 4.0585 36.0011C3.71153 35.7937 3.26163 35.9066 3.05401 36.2538C2.33946 37.4487 1.99043 38.7799 2.07129 40.0025C2.11719 40.6961 2.29874 41.3212 2.59756 41.8504H0.732423C0.327833 41.8504 0 42.1783 0 42.5828V44.3348C0 44.6866 0.250196 44.9887 0.595802 45.0543L11.3663 47.0997V49.2673C11.3663 49.6718 11.6942 49.9997 12.0988 49.9997H33.5371C33.9417 49.9997 34.2695 49.6718 34.2695 49.2673V47.0999L45.041 45.0543C45.3866 44.9887 45.6368 44.6866 45.6368 44.3348V42.5828C45.6368 42.1784 45.3089 41.8505 44.9044 41.8505ZM36.952 29.9149V26.4496H36.9521C37.3765 26.2317 37.8459 26.1161 38.3301 26.1161C39.9999 26.1161 41.3584 27.4746 41.3584 29.1444C41.3584 30.8143 39.9999 32.1728 38.3301 32.1728C37.7979 32.1728 37.2857 32.0346 36.8307 31.774C36.9106 31.1625 36.952 30.5419 36.952 29.9149ZM36.5526 33.2718C37.1094 33.5122 37.711 33.6377 38.3301 33.6377C40.8076 33.6377 42.8232 31.6221 42.8232 29.1445C42.8232 26.667 40.8076 24.6514 38.3301 24.6514C37.8574 24.6514 37.3937 24.7253 36.9521 24.8676V23.0544C36.9521 23.0519 36.9525 23.0494 36.9525 23.0469C36.9525 23.0443 36.9521 23.0419 36.9521 23.0394V22.9818C37.4017 22.8814 37.8633 22.83 38.3302 22.83C41.8119 22.83 44.6446 25.6626 44.6446 29.1444C44.6446 32.6268 41.8119 35.4599 38.3302 35.4599C37.5226 35.4599 36.7442 35.3094 36.0076 35.0167C36.227 34.4488 36.4086 33.866 36.5526 33.2718ZM10.1484 23.7793H35.4873V26.0338C35.4873 26.0346 35.4873 26.0355 35.4873 26.0362V29.915C35.4873 33.2991 34.1696 36.4811 31.7772 38.8744C30.4517 40.199 28.8283 41.2256 27.0767 41.8505H18.561C18.3247 41.7664 18.0897 41.676 17.8576 41.5771C18.395 40.7322 18.5997 39.7921 18.4229 38.8962C18.4227 38.895 18.4226 38.894 18.4224 38.8928C18.4221 38.8914 18.4216 38.8901 18.4214 38.8887C18.1879 37.7232 17.3644 36.7642 16.1019 36.1882C14.9193 35.6487 13.4739 35.509 12.0318 35.7953C11.9006 35.8214 11.7706 35.8512 11.6417 35.8839C10.6641 34.0564 10.1484 32.0052 10.1484 29.9151V23.7793ZM10.3814 40.6902C11.0594 39.6757 11.4686 38.5381 11.56 37.4358C11.8057 37.353 12.0584 37.2835 12.3173 37.232C14.1809 36.862 15.9778 37.4228 16.6943 38.4896L11.9872 39.4252C11.5905 39.5041 11.3327 39.8896 11.4115 40.2864C11.4809 40.6349 11.7868 40.8761 12.1292 40.8761C12.1765 40.8761 12.2246 40.8715 12.2728 40.8618L16.9827 39.9255C16.8888 40.4073 16.6202 40.8904 16.1901 41.3341C16.1889 41.3353 16.1878 41.3365 16.1868 41.3377C16.0074 41.5218 15.8045 41.6932 15.5836 41.8503H9.42531C9.77639 41.5041 10.0966 41.1163 10.3814 40.6902ZM32.8047 48.5351H12.8311V47.2187H32.8047V48.5351Z" fill="#FF4B32"/>
</g>
</g>
<g id="Group_3">
<g id="Group_4">
<g id="Group_5">
<path id="Vector_2" d="M24.7243 14.6436C24.711 14.652 24.7002 14.6587 24.6924 14.6637C24.6997 14.659 24.7104 14.6522 24.7243 14.6436Z" fill="#FF4B32"/>
<path id="Vector_3" d="M24.6928 14.6636C24.6728 14.6762 24.6753 14.6746 24.6928 14.6636V14.6636Z" fill="#FF4B32"/>
<path id="Vector_4" d="M26.3101 7.99494C27.2964 7.05744 27.8645 5.75832 27.8645 4.36378C27.8645 2.62794 26.9858 1.03877 25.5139 0.1126C25.1716 -0.10283 24.7192 0.000100211 24.504 0.342484C24.2885 0.684867 24.3915 1.13702 24.7338 1.35245C25.777 2.0088 26.3998 3.13448 26.3998 4.36368C26.3998 5.59288 25.777 6.71857 24.7338 7.37492C24.2861 7.65578 24.2861 8.33293 24.7338 8.61477C25.777 9.27111 26.3998 10.3968 26.3998 11.626C26.3999 12.8553 25.7771 13.9811 24.7339 14.6374C24.7301 14.6398 24.7277 14.6413 24.7244 14.6435C24.7275 14.6415 24.7305 14.6397 24.7339 14.6375C24.3916 14.853 24.2886 15.3051 24.5041 15.6475C24.6432 15.8688 24.8812 15.99 25.1246 15.99C25.2579 15.99 25.3928 15.9536 25.5139 15.8774C26.9858 14.9513 27.8645 13.362 27.8645 11.6263C27.8645 10.2316 27.2964 8.93244 26.3101 7.99494ZM25.116 14.397C25.1333 14.3862 25.1354 14.3848 25.116 14.397V14.397ZM25.0206 14.4572C25.0366 14.447 25.0514 14.4377 25.0648 14.4293C25.052 14.4373 25.0377 14.4464 25.0206 14.4572Z" fill="#FF4B32"/>
</g>
</g>
</g>
<g id="Group_6">
<g id="Group_7">
<path id="Vector_5" d="M30.6685 7.37532C30.3262 7.15989 29.8738 7.26272 29.6585 7.6052C29.4431 7.94749 29.546 8.39974 29.8884 8.61517C30.9315 9.27151 31.5542 10.3973 31.5542 11.6265C31.5543 12.8555 30.9315 13.9813 29.8885 14.6376C29.5461 14.8531 29.4432 15.3052 29.6586 15.6476C29.7978 15.8689 30.0357 15.9901 30.2791 15.9901C30.4124 15.9901 30.5474 15.9537 30.6685 15.8775C32.1402 14.9514 33.019 13.3621 33.019 11.6264C33.019 9.89066 32.1402 8.3014 30.6685 7.37532Z" fill="#FF4B32"/>
</g>
</g>
<g id="Group_8">
<g id="Group_9">
<path id="Vector_6" d="M19.9375 7.3753C19.5952 7.15987 19.1428 7.2628 18.9275 7.60518C18.7121 7.94756 18.815 8.39971 19.1574 8.61514C20.2006 9.27149 20.8233 10.3972 20.8233 11.6264C20.8234 12.8556 20.2007 13.9814 19.1575 14.6377C18.8151 14.8531 18.7122 15.3053 18.9276 15.6477C19.0668 15.869 19.3048 15.9902 19.5481 15.9902C19.6814 15.9902 19.8164 15.9537 19.9375 15.8776C21.4094 14.9515 22.2881 13.3622 22.2881 11.6265C22.2881 9.89063 21.4094 8.30147 19.9375 7.3753Z" fill="#FF4B32"/>
</g>
</g>
</g>
</svg>
